<?xml version="1.0" encoding="UTF-8" standalone="no"?>
<!DOCTYPE svg PUBLIC "-//W3C//DTD SVG 1.1//EN"
 "http://www.w3.org/Graphics/SVG/1.1/DTD/svg11.dtd">
<!-- Generated by graphviz version 2.47.3 (20210619.1520)
 -->
<!-- Title: dependencies Pages: 1 -->
<svg width="452pt" height="174pt"
 viewBox="0.00 0.00 452.00 173.80" xmlns="http://www.w3.org/2000/svg" xmlns:xlink="http://www.w3.org/1999/xlink">
<g id="graph0" class="graph" transform="scale(1 1) rotate(0) translate(4 169.8)">
<title>dependencies</title>
<polygon fill="white" stroke="transparent" points="-4,4 -4,-169.8 448,-169.8 448,4 -4,4"/>
<text text-anchor="middle" x="222" y="-8.2" font-family="sans-serif" font-size="14.00">dependencies</text>
<g id="clust1" class="cluster">
<title>cluster_ComponentsModule</title>
<polygon fill="none" stroke="black" stroke-dasharray="1,5" points="8,-32.8 8,-157.8 436,-157.8 436,-32.8 8,-32.8"/>
</g>
<g id="clust2" class="cluster">
<title>cluster_ComponentsModule_declarations</title>
<polygon fill="none" stroke="black" points="16,-40.8 16,-92.8 428,-92.8 428,-40.8 16,-40.8"/>
</g>
<!-- EditCreateComponent -->
<g id="node1" class="node">
<title>EditCreateComponent</title>
<polygon fill="#ffffb3" stroke="black" points="419.7,-84.8 278.3,-84.8 278.3,-48.8 419.7,-48.8 419.7,-84.8"/>
<text text-anchor="middle" x="349" y="-62.6" font-family="Times,serif" font-size="14.00">EditCreateComponent</text>
</g>
<!-- ComponentsModule -->
<g id="node4" class="node">
<title>ComponentsModule</title>
<polygon fill="#8dd3c7" stroke="black" points="268.33,-149.8 265.33,-153.8 244.33,-153.8 241.33,-149.8 137.67,-149.8 137.67,-113.8 268.33,-113.8 268.33,-149.8"/>
<text text-anchor="middle" x="203" y="-127.6" font-family="Times,serif" font-size="14.00">ComponentsModule</text>
</g>
<!-- EditCreateComponent&#45;&gt;ComponentsModule -->
<g id="edge1" class="edge">
<title>EditCreateComponent&#45;&gt;ComponentsModule</title>
<path fill="none" stroke="black" d="M278.05,-66.8C269.92,-66.8 264.47,-66.8 264.47,-66.8 264.47,-66.8 264.47,-103.69 264.47,-103.69"/>
<polygon fill="black" stroke="black" points="260.97,-103.69 264.47,-113.69 267.97,-103.69 260.97,-103.69"/>
</g>
<!-- HomeComponent -->
<g id="node2" class="node">
<title>HomeComponent</title>
<polygon fill="#ffffb3" stroke="black" points="260.55,-84.8 145.45,-84.8 145.45,-48.8 260.55,-48.8 260.55,-84.8"/>
<text text-anchor="middle" x="203" y="-62.6" font-family="Times,serif" font-size="14.00">HomeComponent</text>
</g>
<!-- HomeComponent&#45;&gt;ComponentsModule -->
<g id="edge2" class="edge">
<title>HomeComponent&#45;&gt;ComponentsModule</title>
<path fill="none" stroke="black" d="M203,-84.91C203,-84.91 203,-103.79 203,-103.79"/>
<polygon fill="black" stroke="black" points="199.5,-103.79 203,-113.79 206.5,-103.79 199.5,-103.79"/>
</g>
<!-- ListComponent -->
<g id="node3" class="node">
<title>ListComponent</title>
<polygon fill="#ffffb3" stroke="black" points="127.61,-84.8 24.39,-84.8 24.39,-48.8 127.61,-48.8 127.61,-84.8"/>
<text text-anchor="middle" x="76" y="-62.6" font-family="Times,serif" font-size="14.00">ListComponent</text>
</g>
<!-- ListComponent&#45;&gt;ComponentsModule -->
<g id="edge3" class="edge">
<title>ListComponent&#45;&gt;ComponentsModule</title>
<path fill="none" stroke="black" d="M127.63,-66.8C135.76,-66.8 141.53,-66.8 141.53,-66.8 141.53,-66.8 141.53,-103.69 141.53,-103.69"/>
<polygon fill="black" stroke="black" points="138.03,-103.69 141.53,-113.69 145.03,-103.69 138.03,-103.69"/>
</g>
</g>
</svg>
