<?xml version="1.0" encoding="UTF-8" standalone="no"?>
<!DOCTYPE svg PUBLIC "-//W3C//DTD SVG 1.1//EN"
 "http://www.w3.org/Graphics/SVG/1.1/DTD/svg11.dtd">
<!-- Generated by graphviz version 2.47.3 (20210619.1520)
 -->
<!-- Title: dependencies Pages: 1 -->
<svg width="1192pt" height="247pt"
 viewBox="0.00 0.00 1192.00 246.80" xmlns="http://www.w3.org/2000/svg" xmlns:xlink="http://www.w3.org/1999/xlink">
<g id="graph0" class="graph" transform="scale(1 1) rotate(0) translate(4 242.8)">
<title>dependencies</title>
<polygon fill="white" stroke="transparent" points="-4,4 -4,-242.8 1188,-242.8 1188,4 -4,4"/>
<text text-anchor="middle" x="592" y="-8.2" font-family="sans-serif" font-size="14.00">dependencies</text>
<g id="clust1" class="cluster">
<title>cluster_AppModule</title>
<polygon fill="none" stroke="black" stroke-dasharray="1,5" points="8,-32.8 8,-230.8 740,-230.8 740,-32.8 8,-32.8"/>
</g>
<g id="clust2" class="cluster">
<title>cluster_AppModule_declarations</title>
<polygon fill="none" stroke="black" points="338,-40.8 338,-92.8 732,-92.8 732,-40.8 338,-40.8"/>
</g>
<g id="clust6" class="cluster">
<title>cluster_AppModule_imports</title>
<polygon fill="none" stroke="black" points="186,-40.8 186,-92.8 330,-92.8 330,-40.8 186,-40.8"/>
</g>
<g id="clust8" class="cluster">
<title>cluster_AppModule_bootstrap</title>
<polygon fill="none" stroke="black" points="341,-170.8 341,-222.8 465,-222.8 465,-170.8 341,-170.8"/>
</g>
<g id="clust9" class="cluster">
<title>cluster_AppModule_providers</title>
<polygon fill="none" stroke="black" points="16,-40.8 16,-92.8 178,-92.8 178,-40.8 16,-40.8"/>
</g>
<g id="clust16" class="cluster">
<title>cluster_ComponentsModule</title>
<polygon fill="none" stroke="black" stroke-dasharray="1,5" points="748,-32.8 748,-157.8 1176,-157.8 1176,-32.8 748,-32.8"/>
</g>
<g id="clust17" class="cluster">
<title>cluster_ComponentsModule_declarations</title>
<polygon fill="none" stroke="black" points="756,-40.8 756,-92.8 1168,-92.8 1168,-40.8 756,-40.8"/>
</g>
<!-- AppComponent -->
<g id="node1" class="node">
<title>AppComponent</title>
<polygon fill="#ffffb3" stroke="black" points="723.94,-84.8 618.06,-84.8 618.06,-48.8 723.94,-48.8 723.94,-84.8"/>
<text text-anchor="middle" x="671" y="-62.6" font-family="Times,serif" font-size="14.00">AppComponent</text>
</g>
<!-- AppModule -->
<g id="node4" class="node">
<title>AppModule</title>
<polygon fill="#8dd3c7" stroke="black" points="444.66,-149.8 441.66,-153.8 420.66,-153.8 417.66,-149.8 361.34,-149.8 361.34,-113.8 444.66,-113.8 444.66,-149.8"/>
<text text-anchor="middle" x="403" y="-127.6" font-family="Times,serif" font-size="14.00">AppModule</text>
</g>
<!-- AppComponent&#45;&gt;AppModule -->
<g id="edge1" class="edge">
<title>AppComponent&#45;&gt;AppModule</title>
<path fill="none" stroke="black" d="M671,-85.08C671,-106.12 671,-137.8 671,-137.8 671,-137.8 454.88,-137.8 454.88,-137.8"/>
<polygon fill="black" stroke="black" points="454.88,-134.3 444.88,-137.8 454.87,-141.3 454.88,-134.3"/>
</g>
<!-- HeaderComponent -->
<g id="node2" class="node">
<title>HeaderComponent</title>
<polygon fill="#ffffb3" stroke="black" points="599.74,-84.8 478.26,-84.8 478.26,-48.8 599.74,-48.8 599.74,-84.8"/>
<text text-anchor="middle" x="539" y="-62.6" font-family="Times,serif" font-size="14.00">HeaderComponent</text>
</g>
<!-- HeaderComponent&#45;&gt;AppModule -->
<g id="edge2" class="edge">
<title>HeaderComponent&#45;&gt;AppModule</title>
<path fill="none" stroke="black" d="M539,-84.82C539,-102.17 539,-125.8 539,-125.8 539,-125.8 454.91,-125.8 454.91,-125.8"/>
<polygon fill="black" stroke="black" points="454.91,-122.3 444.91,-125.8 454.91,-129.3 454.91,-122.3"/>
</g>
<!-- LoginComponent -->
<g id="node3" class="node">
<title>LoginComponent</title>
<polygon fill="#ffffb3" stroke="black" points="460.28,-84.8 345.72,-84.8 345.72,-48.8 460.28,-48.8 460.28,-84.8"/>
<text text-anchor="middle" x="403" y="-62.6" font-family="Times,serif" font-size="14.00">LoginComponent</text>
</g>
<!-- LoginComponent&#45;&gt;AppModule -->
<g id="edge3" class="edge">
<title>LoginComponent&#45;&gt;AppModule</title>
<path fill="none" stroke="black" d="M403,-84.91C403,-84.91 403,-103.79 403,-103.79"/>
<polygon fill="black" stroke="black" points="399.5,-103.79 403,-113.79 406.5,-103.79 399.5,-103.79"/>
</g>
<!-- AppComponent  -->
<g id="node6" class="node">
<title>AppComponent </title>
<polygon fill="#80b1d3" stroke="black" points="457.44,-214.8 348.56,-214.8 348.56,-178.8 457.44,-178.8 457.44,-214.8"/>
<text text-anchor="middle" x="403" y="-192.6" font-family="Times,serif" font-size="14.00">AppComponent </text>
</g>
<!-- AppModule&#45;&gt;AppComponent  -->
<g id="edge5" class="edge">
<title>AppModule&#45;&gt;AppComponent </title>
<path fill="none" stroke="black" stroke-dasharray="1,5" d="M403,-149.91C403,-149.91 403,-168.79 403,-168.79"/>
<polygon fill="black" stroke="black" points="399.5,-168.79 403,-178.79 406.5,-168.79 399.5,-168.79"/>
</g>
<!-- AppRoutingModule -->
<g id="node5" class="node">
<title>AppRoutingModule</title>
<polygon fill="#8dd3c7" stroke="black" points="322.27,-84.8 319.27,-88.8 298.27,-88.8 295.27,-84.8 193.73,-84.8 193.73,-48.8 322.27,-48.8 322.27,-84.8"/>
<text text-anchor="middle" x="258" y="-62.6" font-family="Times,serif" font-size="14.00">AppRoutingModule</text>
</g>
<!-- AppRoutingModule&#45;&gt;AppModule -->
<g id="edge4" class="edge">
<title>AppRoutingModule&#45;&gt;AppModule</title>
<path fill="none" stroke="black" d="M258,-84.82C258,-102.17 258,-125.8 258,-125.8 258,-125.8 351.06,-125.8 351.06,-125.8"/>
<polygon fill="black" stroke="black" points="351.06,-129.3 361.06,-125.8 351.06,-122.3 351.06,-129.3"/>
</g>
<!-- AuthInterceptor -->
<g id="node7" class="node">
<title>AuthInterceptor</title>
<ellipse fill="#fdb462" stroke="black" cx="97" cy="-66.8" rx="72.91" ry="18"/>
<text text-anchor="middle" x="97" y="-62.6" font-family="Times,serif" font-size="14.00">AuthInterceptor</text>
</g>
<!-- AuthInterceptor&#45;&gt;AppModule -->
<g id="edge6" class="edge">
<title>AuthInterceptor&#45;&gt;AppModule</title>
<path fill="none" stroke="black" d="M97,-85.08C97,-106.12 97,-137.8 97,-137.8 97,-137.8 351.09,-137.8 351.09,-137.8"/>
<polygon fill="black" stroke="black" points="351.09,-141.3 361.09,-137.8 351.09,-134.3 351.09,-141.3"/>
</g>
<!-- EditCreateComponent -->
<g id="node8" class="node">
<title>EditCreateComponent</title>
<polygon fill="#ffffb3" stroke="black" points="1159.7,-84.8 1018.3,-84.8 1018.3,-48.8 1159.7,-48.8 1159.7,-84.8"/>
<text text-anchor="middle" x="1089" y="-62.6" font-family="Times,serif" font-size="14.00">EditCreateComponent</text>
</g>
<!-- ComponentsModule -->
<g id="node11" class="node">
<title>ComponentsModule</title>
<polygon fill="#8dd3c7" stroke="black" points="1008.33,-149.8 1005.33,-153.8 984.33,-153.8 981.33,-149.8 877.67,-149.8 877.67,-113.8 1008.33,-113.8 1008.33,-149.8"/>
<text text-anchor="middle" x="943" y="-127.6" font-family="Times,serif" font-size="14.00">ComponentsModule</text>
</g>
<!-- EditCreateComponent&#45;&gt;ComponentsModule -->
<g id="edge7" class="edge">
<title>EditCreateComponent&#45;&gt;ComponentsModule</title>
<path fill="none" stroke="black" d="M1018.05,-66.8C1009.92,-66.8 1004.47,-66.8 1004.47,-66.8 1004.47,-66.8 1004.47,-103.69 1004.47,-103.69"/>
<polygon fill="black" stroke="black" points="1000.97,-103.69 1004.47,-113.69 1007.97,-103.69 1000.97,-103.69"/>
</g>
<!-- HomeComponent -->
<g id="node9" class="node">
<title>HomeComponent</title>
<polygon fill="#ffffb3" stroke="black" points="1000.55,-84.8 885.45,-84.8 885.45,-48.8 1000.55,-48.8 1000.55,-84.8"/>
<text text-anchor="middle" x="943" y="-62.6" font-family="Times,serif" font-size="14.00">HomeComponent</text>
</g>
<!-- HomeComponent&#45;&gt;ComponentsModule -->
<g id="edge8" class="edge">
<title>HomeComponent&#45;&gt;ComponentsModule</title>
<path fill="none" stroke="black" d="M943,-84.91C943,-84.91 943,-103.79 943,-103.79"/>
<polygon fill="black" stroke="black" points="939.5,-103.79 943,-113.79 946.5,-103.79 939.5,-103.79"/>
</g>
<!-- ListComponent -->
<g id="node10" class="node">
<title>ListComponent</title>
<polygon fill="#ffffb3" stroke="black" points="867.61,-84.8 764.39,-84.8 764.39,-48.8 867.61,-48.8 867.61,-84.8"/>
<text text-anchor="middle" x="816" y="-62.6" font-family="Times,serif" font-size="14.00">ListComponent</text>
</g>
<!-- ListComponent&#45;&gt;ComponentsModule -->
<g id="edge9" class="edge">
<title>ListComponent&#45;&gt;ComponentsModule</title>
<path fill="none" stroke="black" d="M867.63,-66.8C875.76,-66.8 881.53,-66.8 881.53,-66.8 881.53,-66.8 881.53,-103.69 881.53,-103.69"/>
<polygon fill="black" stroke="black" points="878.03,-103.69 881.53,-113.69 885.03,-103.69 878.03,-103.69"/>
</g>
</g>
</svg>
